# xmcd
#
# Track frame offsets: 
#        150
#        10687
#        26804
#        43435
#        61318
#        76697
#        90818
#        100556
#        117210
#        129330
#        142664
#        164641
#        177712
#        192367
#        207599
#        222058
#        233255
#        250120
#        263111
#        279065
#        295974
#
# Disc length: 4158 seconds
#
# Revision: 0
# Processed by: cddbd v1.5.2PL0 Copyright (c) Steve Scherf et al.
# Submitted via: ExactAudioCopyFreeDBPlugin 1.0
#
DISCID=18103c15
DTITLE=Old Dogs - Old Dogs Volume One and Two
DYEAR=2017
DGENRE=Country
TTITLE0=Old Dogs
TTITLE1=Come Back When You're Younger
TTITLE2=I Don't Do It No More
TTITLE3=She'd Rather Be Homeless
TTITLE4=Cut The Mustard
TTITLE5=Young Man's Job
TTITLE6=When I Was
TTITLE7=Couch Potato
TTITLE8=Hard When It Ain't
TTITLE9=Jittabug
TTITLE10=Me And Jimmie Rodgers
TTITLE11=Elvis Has Left The Building
TTITLE12=Wait Until Tomorrow
TTITLE13=I Never Expected
TTITLE14=Ever Lovin' Machine
TTITLE15=Slap My Face
TTITLE16=Old Man Blues
TTITLE17=Rough On The Livin'
TTITLE18=Alimony
TTITLE19=Still Gonna Die
TTITLE20=Time
EXTD=
EXTT0=
EXTT1=
EXTT2=
EXTT3=
EXTT4=
EXTT5=
EXTT6=
EXTT7=
EXTT8=
EXTT9=
EXTT10=
EXTT11=
EXTT12=
EXTT13=
EXTT14=
EXTT15=
EXTT16=
EXTT17=
EXTT18=
EXTT19=
EXTT20=
PLAYORDER=
